<mxfile host="app.diagrams.net" modified="2022-07-27T20:53:16.782Z" agent="5.0 (Windows NT 10.0; Win64; x64) AppleWebKit/537.36 (KHTML, like Gecko) Chrome/103.0.5060.114 Safari/537.36 OPR/89.0.4447.64" etag="rXFfYujzu8RIxSCJh1yo" version="20.2.2" type="github">
  <diagram id="0_ErZN5WA0W29r6_q3-Z" name="Page-1">
    <mxGraphModel dx="1381" dy="795" grid="1" gridSize="10" guides="1" tooltips="1" connect="1" arrows="1" fold="1" page="1" pageScale="1" pageWidth="850" pageHeight="1100" math="0" shadow="0">
      <root>
        <mxCell id="0" />
        <mxCell id="1" parent="0" />
        <mxCell id="8udPuZZa-RVb5TZ7qEcf-2" value="&#xa;&lt;span style=&quot;color: rgb(0, 0, 0); font-family: Helvetica; font-size: 12px; font-style: normal; font-variant-ligatures: normal; font-variant-caps: normal; font-weight: 400; letter-spacing: normal; orphans: 2; text-align: center; text-indent: 0px; text-transform: none; widows: 2; word-spacing: 0px; -webkit-text-stroke-width: 0px; background-color: rgb(248, 249, 250); text-decoration-thickness: initial; text-decoration-style: initial; text-decoration-color: initial; float: none; display: inline !important;&quot;&gt;Manage Semesters&lt;/span&gt;&#xa;&#xa;" style="ellipse;whiteSpace=wrap;html=1;" vertex="1" parent="1">
          <mxGeometry x="275" y="30" width="175" height="80" as="geometry" />
        </mxCell>
        <mxCell id="8udPuZZa-RVb5TZ7qEcf-3" value="View Grades" style="ellipse;whiteSpace=wrap;html=1;" vertex="1" parent="1">
          <mxGeometry x="290" y="650" width="170" height="80" as="geometry" />
        </mxCell>
        <mxCell id="8udPuZZa-RVb5TZ7qEcf-4" value="Manage Professors" style="ellipse;whiteSpace=wrap;html=1;" vertex="1" parent="1">
          <mxGeometry x="280" y="140" width="170" height="80" as="geometry" />
        </mxCell>
        <mxCell id="8udPuZZa-RVb5TZ7qEcf-5" value="View Subjects" style="ellipse;whiteSpace=wrap;html=1;" vertex="1" parent="1">
          <mxGeometry x="290" y="540" width="170" height="80" as="geometry" />
        </mxCell>
        <mxCell id="8udPuZZa-RVb5TZ7qEcf-6" value="Manage Grades" style="ellipse;whiteSpace=wrap;html=1;" vertex="1" parent="1">
          <mxGeometry x="280" y="440" width="180" height="80" as="geometry" />
        </mxCell>
        <mxCell id="8udPuZZa-RVb5TZ7qEcf-7" value="Manage Subjects" style="ellipse;whiteSpace=wrap;html=1;" vertex="1" parent="1">
          <mxGeometry x="290" y="350" width="180" height="70" as="geometry" />
        </mxCell>
        <mxCell id="8udPuZZa-RVb5TZ7qEcf-9" value="Admin" style="shape=umlActor;verticalLabelPosition=bottom;verticalAlign=top;html=1;outlineConnect=0;labelPosition=left;align=right;" vertex="1" parent="1">
          <mxGeometry x="90" y="160" width="80" height="90" as="geometry" />
        </mxCell>
        <mxCell id="8udPuZZa-RVb5TZ7qEcf-10" value="Professor&lt;br&gt;" style="shape=umlActor;verticalLabelPosition=bottom;verticalAlign=top;html=1;outlineConnect=0;" vertex="1" parent="1">
          <mxGeometry x="620" y="350" width="90" height="90" as="geometry" />
        </mxCell>
        <mxCell id="8udPuZZa-RVb5TZ7qEcf-13" value="Student" style="shape=umlActor;verticalLabelPosition=bottom;verticalAlign=top;html=1;outlineConnect=0;" vertex="1" parent="1">
          <mxGeometry x="110" y="535" width="70" height="90" as="geometry" />
        </mxCell>
        <mxCell id="8udPuZZa-RVb5TZ7qEcf-18" value="" style="endArrow=classic;html=1;rounded=0;entryX=0;entryY=0.5;entryDx=0;entryDy=0;" edge="1" parent="1" target="8udPuZZa-RVb5TZ7qEcf-4">
          <mxGeometry width="50" height="50" relative="1" as="geometry">
            <mxPoint x="170" y="200" as="sourcePoint" />
            <mxPoint x="220" y="150" as="targetPoint" />
          </mxGeometry>
        </mxCell>
        <mxCell id="8udPuZZa-RVb5TZ7qEcf-20" value="" style="endArrow=classic;html=1;rounded=0;entryX=0.025;entryY=0.35;entryDx=0;entryDy=0;entryPerimeter=0;" edge="1" parent="1" source="8udPuZZa-RVb5TZ7qEcf-9" target="8udPuZZa-RVb5TZ7qEcf-2">
          <mxGeometry width="50" height="50" relative="1" as="geometry">
            <mxPoint x="400" y="530" as="sourcePoint" />
            <mxPoint x="450" y="480" as="targetPoint" />
          </mxGeometry>
        </mxCell>
        <mxCell id="8udPuZZa-RVb5TZ7qEcf-23" value="" style="endArrow=classic;html=1;rounded=0;entryX=1;entryY=0.5;entryDx=0;entryDy=0;" edge="1" parent="1" source="8udPuZZa-RVb5TZ7qEcf-10" target="8udPuZZa-RVb5TZ7qEcf-7">
          <mxGeometry width="50" height="50" relative="1" as="geometry">
            <mxPoint x="400" y="530" as="sourcePoint" />
            <mxPoint x="450" y="480" as="targetPoint" />
          </mxGeometry>
        </mxCell>
        <mxCell id="8udPuZZa-RVb5TZ7qEcf-24" value="" style="endArrow=classic;html=1;rounded=0;entryX=1.011;entryY=0.413;entryDx=0;entryDy=0;entryPerimeter=0;" edge="1" parent="1" target="8udPuZZa-RVb5TZ7qEcf-6">
          <mxGeometry width="50" height="50" relative="1" as="geometry">
            <mxPoint x="610" y="430" as="sourcePoint" />
            <mxPoint x="480" y="470" as="targetPoint" />
          </mxGeometry>
        </mxCell>
        <mxCell id="8udPuZZa-RVb5TZ7qEcf-25" value="" style="endArrow=classic;html=1;rounded=0;" edge="1" parent="1">
          <mxGeometry width="50" height="50" relative="1" as="geometry">
            <mxPoint x="190" y="580" as="sourcePoint" />
            <mxPoint x="290" y="580" as="targetPoint" />
          </mxGeometry>
        </mxCell>
        <mxCell id="8udPuZZa-RVb5TZ7qEcf-28" value="" style="endArrow=classic;html=1;rounded=0;" edge="1" parent="1">
          <mxGeometry width="50" height="50" relative="1" as="geometry">
            <mxPoint x="190" y="620" as="sourcePoint" />
            <mxPoint x="290" y="670" as="targetPoint" />
          </mxGeometry>
        </mxCell>
        <mxCell id="8udPuZZa-RVb5TZ7qEcf-29" value="Manage Students" style="ellipse;whiteSpace=wrap;html=1;" vertex="1" parent="1">
          <mxGeometry x="280" y="240" width="170" height="80" as="geometry" />
        </mxCell>
        <mxCell id="8udPuZZa-RVb5TZ7qEcf-31" value="" style="endArrow=classic;html=1;rounded=0;entryX=0;entryY=0.625;entryDx=0;entryDy=0;entryPerimeter=0;" edge="1" parent="1" source="8udPuZZa-RVb5TZ7qEcf-9" target="8udPuZZa-RVb5TZ7qEcf-29">
          <mxGeometry width="50" height="50" relative="1" as="geometry">
            <mxPoint x="400" y="430" as="sourcePoint" />
            <mxPoint x="210" y="120" as="targetPoint" />
          </mxGeometry>
        </mxCell>
      </root>
    </mxGraphModel>
  </diagram>
</mxfile>
